#!OML:ASF H:\Terrain\Patient Classification 1\Walking\steve\steve.ASF
:FULLY-SPECIFIED
:DEGREES
301
root 9.22812 15.3073 19.1974 12.794 -15.2155 -9.65491
lowerback -2.07079 7.07505 7.17323
upperback -3.26646 9.39683 0.760858
thorax -1.22766 4.57518 -2.99102
lowerneck -9.973 -0.945254 -1.27752
upperneck 11.4957 -1.31639 1.80229
head 5.1142 -0.577824 0.67336
rclavicle -4.47762e-014 1.0138e-014
rhumerus -26.2241 15.6136 -84.209
rradius 53.5484
rwrist -10.6493
rhand -16.0248 -38.1732
rfingers 7.12502
rthumb 10.1762 -67.9071
lclavicle -4.47762e-014 1.0138e-014
lhumerus -65.9388 7.93967 65.2976
lradius 16.9898
lwrist -5.65497
lhand -19.2815 -19.3826
lfingers 7.12502
lthumb 7.03341 10.4805
rfemur 25.8564 7.77622 26.447
rtibia 5.40694e-014
rfoot 4.81696 17.149
rtoes 11.5199
lfemur -54.451 7.59404 -6.22321
ltibia 33.9801
lfoot -8.59561 8.37506
ltoes 3.21326
302
root 9.24889 15.2752 19.4313 13.2475 -14.7554 -9.42566
lowerback -2.30556 6.9545 6.78729
upperback -3.47994 9.22789 0.515051
thorax -1.35306 4.48842 -3.03027
lowerneck -10.2885 -0.892562 -1.13207
upperneck 11.3866 -1.28197 1.94173
head 5.13292 -0.543966 0.694487
rclavicle -3.27001e-014 -1.74931e-014
rhumerus -26.9311 14.9182 -84.4475
rradius 53.3681
rwrist -10.1681
rhand -15.878 -38.3527
rfingers 7.12502
rthumb 10.3178 -68.0796
lclavicle -3.27001e-014 -1.74931e-014
lhumerus -65.7598 8.42015 63.8982
lradius 16.4212
lwrist -7.34606
lhand -18.504 -19.0842
lfingers 7.12502
lthumb 7.78392 10.7525
rfemur 25.955 7.89604 26.2177
rtibia 7.95139e-014
rfoot 5.25439 16.2865
rtoes 7.26001
lfemur -55.865 7.4688 -6.82985
ltibia 36.3975
lfoot -7.27168 8.37873
ltoes 7.72707
303
root 9.28332 15.2582 19.6705 13.6524 -14.0898 -8.32026
lowerback -2.69557 6.72101 5.87215
upperback -3.73451 8.90131 -0.0600912
thorax -1.47257 4.33158 -3.11217
lowerneck -10.7868 -1.1722 -1.57442
upperneck 11.3956 -1.69402 2.76177
head 5.23712 -0.70508 0.98942
rclavicle -6.63444e-015 -2.3059e-014
rhumerus -27.7732 14.1078 -84.8086
rradius 53.1028
rwrist -9.81848
rhand -16.1518 -37.8247
rfingers 7.12502
rthumb 10.0537 -67.5645
lclavicle -6.63444e-015 -2.3059e-014
lhumerus -65.4836 8.99517 62.2037
lradius 15.7037
lwrist -9.39004
lhand -17.8558 -19.1661
lfingers 7.12502
lthumb 8.40953 10.6464
rfemur 26.0236 7.69095 25.0126
rtibia -2.8625e-014
rfoot 5.87557 15.7372
rtoes 3.62983
lfemur -57.6175 7.09079 -8.65599
ltibia 38.8902
lfoot -5.37395 8.25422
ltoes 5.41941
304
root 9.28308 15.2368 19.8907 14.038 -14.2365 -8.52154
lowerback -2.50042 6.84843 5.52716
upperback -3.93524 9.09588 -0.155412
thorax -1.80648 4.42259 -3.05888
lowerneck -11.3841 -1.45029 -1.79758
upperneck 11.4239 -2.07648 3.12777
head 5.36147 -0.870735 1.10753
rclavicle -1.32937e-014 9.14409e-015
rhumerus -28.7757 13.4547 -85.0488
rradius 53.0065
rwrist -10.204
rhand -16.6145 -37.9878
rfingers 7.12502
rthumb 9.6073 -67.7488
lclavicle -1.32937e-014 9.14409e-015
lhumerus -65.0596 9.56244 60.7168
lradius 14.981
lwrist -11.4813
lhand -17.9122 -19.2483
lfingers 7.12502
lthumb 8.3551 10.5665
rfemur 26.2772 8.42997 25.1884
rtibia 2.22639e-014
rfoot 7.28339 14.8795
rtoes 1.91019
lfemur -58.8621 7.90886 -9.03222
ltibia 41.4442
lfoot -3.74108 7.23933
ltoes 2.26218
305
root 9.29118 15.2185 20.1041 14.5705 -13.6693 -8.18403
lowerback -2.58554 6.78277 4.87612
upperback -4.23176 9.01628 -0.365144
thorax -2.13557 4.38303 -2.94211
lowerneck -11.5252 -1.72166 -1.95797
upperneck 11.1808 -2.41862 3.20823
head 5.32112 -1.03937 1.13063
rclavicle 4.2192e-014 1.78906e-014
rhumerus -29.7349 12.6852 -85.1182
rradius 52.4336
rwrist -10.5765
rhand -16.4924 -38.7913
rfingers 7.12502
rthumb 9.72511 -68.5468
lclavicle 4.2192e-014 1.78906e-014
lhumerus -64.6193 9.78402 59.7189
lradius 14.6662
lwrist -13.281
lhand -17.775 -19.1082
lfingers 7.12502
lthumb 8.48749 10.7012
rfemur 26.2531 8.42953 24.8196
rtibia 2.54444e-014
rfoot 8.84991 14.2776
rtoes 0.341741
lfemur -60.4573 8.08158 -10.1888
ltibia 43.8668
lfoot -2.68723 5.54229
ltoes 1.68783
306
root 9.30485 15.2012 20.3291 14.8958 -13.536 -8.44696
lowerback -2.11063 6.88572 4.86777
upperback -4.67552 9.1951 -0.487278
thorax -2.82915 4.44415 -3.155
lowerneck -10.9907 -1.89749 -2.0268
upperneck 10.7458 -2.64936 3.2783
head 5.10419 -1.15843 1.14973
rclavicle 1.17283e-013 1.19271e-015
rhumerus -31.0794 11.6871 -85.2772
rradius 51.6457
rwrist -9.84613
rhand -15.3139 -39.8003
rfingers 7.12502
rthumb 10.862 -69.4994
lclavicle 1.17283e-013 1.19271e-015
lhumerus -64.5848 9.68384 58.6358
lradius 14.7386
lwrist -15.1011
lhand -16.7168 -18.8408
lfingers 7.12502
lthumb 9.50863 10.9247
rfemur 26.4055 8.92113 25.0736
rtibia -4.13472e-014
rfoot 10.5203 13.2891
rtoes -1.77363
lfemur -61.3614 8.29503 -10.3937
ltibia 46.0524
lfoot -2.53833 4.28447
ltoes 0.622321
307
root 9.31366 15.1938 20.5364 15.3022 -13.2273 -8.61277
lowerback -2.24179 6.91487 4.82161
upperback -4.64953 9.22287 -0.636718
thorax -2.70891 4.46212 -3.26066
lowerneck -10.9363 -2.0295 -2.37681
upperneck 10.0139 -2.81574 3.79546
head 4.88546 -1.22559 1.35624
rclavicle -4.82053e-014 -2.18663e-014
rhumerus -31.7239 10.9763 -85.3897
rradius 51.2732
rwrist -9.65074
rhand -16.3733 -39.0695
rfingers 7.12502
rthumb 9.84002 -68.8195
lclavicle -4.82053e-014 -2.18663e-014
lhumerus -63.6815 10.1648 57.6712
lradius 14.5745
lwrist -16.7743
lhand -16.1734 -18.617
lfingers 7.12502
lthumb 10.0329 11.1239
rfemur 26.3419 9.20982 25.3215
rtibia -9.54166e-015
rfoot 12.8244 11.1878
rtoes 0.994943
lfemur -62.2507 8.37594 -10.6973
ltibia 47.8409
lfoot -2.63266 3.4893
ltoes -2.35527
